<svg width="160" height="160" viewBox="0 0 160 160" fill="none" xmlns="http://www.w3.org/2000/svg">
<path d="M28.3376 67.984L132.858 75.592C137.482 75.928 140.978 79.952 140.666 84.584L140.178 91.768C139.866 96.4 135.858 99.88 131.234 99.536L26.7136 91.928C22.0896 91.592 18.5936 87.568 18.9056 82.936L19.3936 75.752C19.7056 71.12 23.7136 67.648 28.3376 67.984Z" fill="#F9F9F9"/>
<path fill-rule="evenodd" clip-rule="evenodd" d="M32.5698 75.064C31.8018 74.176 30.4578 74.08 29.5778 74.848L25.5858 78.312C24.7058 79.08 24.6098 80.416 25.3858 81.304L28.8658 85.312C29.6338 86.2 30.9778 86.296 31.8578 85.528L35.8498 82.064C36.7298 81.296 36.8258 79.96 36.0498 79.072L32.5698 75.064ZM33.5858 78.696C33.7778 78.92 33.7538 79.256 33.5378 79.44L30.1538 82.384C29.9298 82.576 29.6018 82.552 29.4098 82.328L27.9298 80.624C27.7378 80.4 27.7618 80.064 27.9778 79.88C28.2018 79.688 28.5298 79.712 28.7218 79.936L29.8498 81.24L32.8338 78.648C33.0578 78.456 33.3858 78.48 33.5778 78.704L33.5858 78.696Z" fill="#808080"/>
<path d="M132.05 87.5679C131.946 89.1119 130.61 90.2719 129.066 90.1599L75.5699 86.2639C74.0259 86.1519 72.8659 84.8079 72.9699 83.2639C73.0739 81.7199 74.4099 80.5599 75.9539 80.6719L129.45 84.5679C130.994 84.6799 132.154 86.0239 132.05 87.5679Z" fill="#BBBBBB"/>
<path d="M69.7778 83.0319C69.6738 84.5759 68.3378 85.7359 66.7938 85.6239L46.0498 84.1119C44.5058 83.9999 43.3458 82.6559 43.4498 81.1119C43.5538 79.5679 44.8898 78.4079 46.4338 78.5199L67.1778 80.0319C68.7218 80.1439 69.8818 81.4879 69.7778 83.0319Z" fill="#BBBBBB"/>
<path d="M131.858 100.76C131.626 100.76 131.386 100.752 131.146 100.736L26.6256 93.1201C21.3456 92.7361 17.3456 88.1281 17.7056 82.8481L18.1936 75.6641C18.3696 73.1041 19.5296 70.7681 21.4576 69.0881C23.3936 67.4081 25.8736 66.5921 28.4256 66.7761L132.946 74.3841C138.218 74.7681 142.226 79.3761 141.866 84.6561L141.378 91.8401C141.202 94.4001 140.042 96.7361 138.114 98.4081C136.362 99.9281 134.162 100.752 131.858 100.752V100.76ZM27.7216 69.1601C25.9936 69.1601 24.3536 69.7761 23.0416 70.9121C21.5936 72.1681 20.7216 73.9201 20.5936 75.8321L20.1056 83.0161C19.8336 86.9841 22.8416 90.4401 26.8016 90.7281L131.322 98.3361C133.242 98.4801 135.09 97.8561 136.538 96.6001C137.986 95.3441 138.85 93.5921 138.986 91.6801L139.474 84.4961C139.746 80.5361 136.738 77.0721 132.778 76.7841L28.2576 69.1761C28.0816 69.1601 27.8976 69.1601 27.7216 69.1601Z" fill="white"/>
<path fill-rule="evenodd" clip-rule="evenodd" d="M17.3539 75.608C17.7699 69.88 22.7539 65.576 28.4819 65.992L133.002 73.6C138.73 74.016 143.034 79 142.618 84.728L142.098 91.912C141.682 97.64 136.698 101.944 130.97 101.528L26.4499 93.912C20.7219 93.496 16.4179 88.512 16.8339 82.784L17.3539 75.6V75.608ZM28.3619 67.584C23.5139 67.232 19.2979 70.872 18.9459 75.72L18.4259 82.904C18.0739 87.752 21.7139 91.968 26.5619 92.32L131.082 99.928C135.93 100.28 140.146 96.64 140.498 91.792L141.018 84.608C141.37 79.76 137.73 75.544 132.882 75.192L28.3619 67.584Z" fill="#DDDDDD"/>
<path d="M26.8977 37.0039C26.8977 37.0017 26.8995 36.9999 26.9017 36.9998L131.618 32.9039C136.25 32.7199 140.178 36.3359 140.378 40.9679L140.698 48.1599C140.898 52.7919 137.306 56.6959 132.674 56.8799L27.9537 60.9839C23.3217 61.1679 19.3937 57.5519 19.1937 52.9199L18.8737 45.7279C18.6737 41.0973 22.2636 37.1942 26.8937 37.0081C26.8959 37.008 26.8977 37.0062 26.8977 37.0039V37.0039Z" fill="#F9F9F9"/>
<path fill-rule="evenodd" clip-rule="evenodd" d="M30.8576 54.1919C33.8016 54.0799 36.0816 51.5999 35.9536 48.6559C35.8256 45.7119 33.3296 43.4239 30.3936 43.5359C27.4496 43.6479 25.1696 46.1279 25.2976 49.0719C25.4256 52.0159 27.9216 54.3039 30.8576 54.1919ZM33.3536 47.7999C33.5536 47.5839 33.5376 47.2479 33.3216 47.0479C33.1056 46.8479 32.7696 46.8639 32.5696 47.0799L29.8736 50.0079L28.6016 48.8319C28.3856 48.6319 28.0496 48.6479 27.8496 48.8639C27.6496 49.0799 27.6656 49.4159 27.8816 49.6159L29.5536 51.1519C29.7696 51.3519 30.1056 51.3359 30.3056 51.1199L33.3616 47.7999H33.3536Z" fill="#808080"/>
<path d="M132.146 44.8961C132.218 46.4401 131.018 47.7441 129.474 47.8001L108.69 48.6161C107.146 48.6801 105.834 47.4721 105.77 45.9281C105.698 44.3841 106.898 43.0801 108.442 43.0241L129.226 42.2081C130.77 42.1441 132.082 43.3521 132.146 44.8961Z" fill="#BBBBBB"/>
<path d="M102.57 46.0481C102.642 47.5921 101.442 48.8961 99.898 48.9521L46.2979 51.0481C44.7539 51.1121 43.4419 49.9041 43.3779 48.3601C43.3139 46.8161 44.5059 45.5121 46.0499 45.4561L99.6499 43.3601C101.194 43.2961 102.506 44.5041 102.57 46.0481Z" fill="#BBBBBB"/>
<path d="M27.6175 62.184C22.4975 62.184 18.2175 58.128 17.9935 52.968L17.6735 45.776C17.5615 43.216 18.4495 40.768 20.1855 38.88C21.9215 37 24.2815 35.904 26.8495 35.8L131.57 31.704C136.874 31.504 141.346 35.632 141.578 40.912L141.897 48.104C142.009 50.664 141.113 53.12 139.385 55C137.649 56.88 135.289 57.976 132.721 58.08L28.0015 62.176C27.8735 62.176 27.7455 62.176 27.6175 62.176V62.184ZM26.9455 38.2C25.0255 38.272 23.2495 39.096 21.9535 40.504C20.6575 41.912 19.9855 43.752 20.0735 45.672L20.3935 52.864C20.5695 56.832 23.9375 59.952 27.9135 59.784L132.633 55.688C134.553 55.616 136.33 54.792 137.626 53.384C138.922 51.976 139.594 50.136 139.506 48.216L139.185 41.024C139.009 37.056 135.642 33.944 131.666 34.104L26.9455 38.2Z" fill="white"/>
<path fill-rule="evenodd" clip-rule="evenodd" d="M16.8337 45.808C16.6097 40.072 21.0817 35.232 26.8177 35.008L131.538 30.912C137.282 30.688 142.114 35.16 142.338 40.896L142.618 48.088C142.842 53.824 138.37 58.664 132.634 58.888L27.9137 62.984C22.1777 63.208 17.3377 58.736 17.1137 53L16.8337 45.808ZM26.8817 36.608C22.0257 36.8 18.2417 40.888 18.4337 45.744L18.7137 52.936C18.9057 57.792 22.9937 61.576 27.8497 61.384L132.57 57.288C137.426 57.096 141.21 53.008 141.018 48.152L140.738 40.96C140.546 36.104 136.458 32.32 131.602 32.512L26.8817 36.608Z" fill="#DDDDDD"/>
<path d="M26.5456 114.352L131.018 106.048C135.642 105.68 139.706 109.128 140.098 113.752L140.706 120.928C141.098 125.552 137.666 129.6 133.042 129.96L28.5696 138.264C23.9456 138.632 19.8816 135.184 19.4896 130.56L18.8816 123.384C18.4896 118.76 21.9216 114.712 26.5456 114.352Z" fill="#F9F9F9"/>
<path fill-rule="evenodd" clip-rule="evenodd" d="M31.1938 131.368C34.1298 131.136 36.3058 128.568 36.0658 125.632C35.8178 122.696 33.2338 120.504 30.2978 120.736C27.3618 120.968 25.1858 123.536 25.4258 126.472C25.6738 129.408 28.2578 131.6 31.1938 131.368ZM33.4338 124.88C33.6258 124.656 33.5938 124.32 33.3698 124.128C33.1458 123.936 32.8098 123.96 32.6178 124.184L30.0418 127.224L28.7218 126.104C28.4978 125.912 28.1618 125.936 27.9698 126.16C27.7778 126.384 27.8098 126.72 28.0338 126.912L29.7618 128.384C29.9858 128.576 30.3218 128.552 30.5138 128.328L33.4338 124.888V124.88Z" fill="#808080"/>
<path d="M132.026 118.008C132.154 119.552 131.01 120.896 129.474 121.016L76.0015 125.264C74.4575 125.384 73.1055 124.24 72.9775 122.696C72.8495 121.152 73.9936 119.808 75.5296 119.688L129.002 115.44C130.546 115.32 131.898 116.472 132.026 118.008Z" fill="#BBBBBB"/>
<path d="M69.7778 122.952C69.9058 124.496 68.7618 125.84 67.2258 125.96L46.4898 127.608C44.9458 127.728 43.5938 126.584 43.4658 125.04C43.3378 123.496 44.4818 122.152 46.0178 122.032L66.7538 120.384C68.2978 120.264 69.6498 121.408 69.7778 122.952Z" fill="#BBBBBB"/>
<path d="M27.8899 139.496C22.9379 139.496 18.7059 135.68 18.2899 130.664L17.6819 123.488C17.4659 120.928 18.2579 118.448 19.9139 116.496C21.5699 114.544 23.8899 113.36 26.4499 113.152L130.922 104.848C136.202 104.432 140.85 108.376 141.29 113.648L141.898 120.824C142.114 123.384 141.322 125.864 139.666 127.816C138.01 129.768 135.69 130.952 133.13 131.16L28.6579 139.464C28.4019 139.488 28.1459 139.496 27.8899 139.496ZM26.6419 115.552C24.7219 115.704 22.9859 116.592 21.7459 118.056C20.5059 119.52 19.9139 121.376 20.0739 123.296L20.6819 130.472C21.0179 134.432 24.5139 137.392 28.4739 137.08L132.946 128.776C134.866 128.624 136.602 127.736 137.842 126.272C139.082 124.808 139.674 122.952 139.514 121.032L138.906 113.856C138.57 109.896 135.074 106.944 131.114 107.248L26.6419 115.552Z" fill="white"/>
<path fill-rule="evenodd" clip-rule="evenodd" d="M16.8337 123.552C16.3777 117.824 20.6497 112.816 26.3777 112.36L130.85 104.056C136.578 103.6 141.586 107.872 142.042 113.6L142.61 120.776C143.066 126.504 138.794 131.512 133.066 131.968L28.5937 140.272C22.8657 140.728 17.8577 136.456 17.4017 130.728L16.8337 123.552ZM26.5057 113.952C21.6577 114.336 18.0417 118.576 18.4337 123.424L19.0017 130.6C19.3857 135.448 23.6257 139.056 28.4737 138.672L132.946 130.368C137.794 129.984 141.41 125.744 141.018 120.896L140.45 113.72C140.066 108.872 135.826 105.256 130.978 105.648L26.5057 113.952Z" fill="#DDDDDD"/>
<path d="M34.0176 19.68L49.6656 17L40.9536 30.376L40.0576 23.248L34.0256 19.688L34.0176 19.68Z" fill="#808080"/>
<path fill-rule="evenodd" clip-rule="evenodd" d="M93.3695 105.616C101.61 99.0879 104.042 87.3359 98.6255 77.9599C92.6735 67.6479 79.4895 64.1199 69.1855 70.0719C58.8735 76.0239 55.3455 89.208 61.2975 99.512C66.7135 108.888 78.1055 112.656 87.8815 108.784L92.8735 117.432L98.3615 114.264L93.3695 105.616ZM94.2335 80.496C98.7855 88.376 96.0815 98.456 88.2015 103.008C80.3215 107.56 70.2415 104.856 65.6895 96.976C61.1375 89.096 63.8415 79.016 71.7215 74.464C79.6015 69.912 89.6815 72.616 94.2335 80.496Z" fill="#8D8D8D"/>
<g opacity="0.65">
<path opacity="0.65" d="M94.2415 80.496C98.7935 88.376 96.0895 98.456 88.2095 103.008C80.3295 107.56 70.2495 104.856 65.6975 96.976C61.1455 89.096 63.8495 79.016 71.7295 74.464C79.6095 69.912 89.6895 72.616 94.2415 80.496Z" fill="#FCFCFC"/>
</g>
<g opacity="0.65">
<g opacity="0.11">
<path fill-rule="evenodd" clip-rule="evenodd" d="M87.4095 101.624C94.5295 97.512 96.9695 88.416 92.8575 81.296C88.7455 74.176 79.6495 71.736 72.5295 75.848C65.4095 79.96 62.9695 89.056 67.0815 96.176C71.1935 103.296 80.2895 105.728 87.4095 101.624ZM88.2095 103.008C96.0895 98.456 98.7935 88.376 94.2415 80.496C89.6895 72.616 79.6095 69.912 71.7295 74.464C63.8495 79.016 61.1455 89.096 65.6975 96.976C70.2495 104.856 80.3295 107.56 88.2095 103.008Z" fill="black" fill-opacity="0.875"/>
</g>
</g>
<path d="M89.3375 117.088C88.1375 114.808 88.9455 111.984 91.1855 110.688L93.4895 109.36C95.7215 108.072 98.5775 108.776 99.9535 110.96L112.649 131.144C114.097 133.448 113.346 136.496 110.986 137.856L107.114 140.088C104.754 141.448 101.738 140.584 100.466 138.168L89.3295 117.08L89.3375 117.088Z" fill="#F9F9F9"/>
<path fill-rule="evenodd" clip-rule="evenodd" d="M95.0898 112.128L92.7858 113.456C92.0418 113.888 91.7698 114.824 92.1698 115.592L103.306 136.68C103.73 137.48 104.738 137.768 105.522 137.32L109.394 135.088C110.178 134.632 110.434 133.616 109.946 132.848L97.2498 112.664C96.7938 111.936 95.8418 111.704 95.0978 112.128H95.0898ZM91.1858 110.688C88.9538 111.976 88.1378 114.808 89.3378 117.088L100.474 138.176C101.746 140.584 104.762 141.456 107.122 140.096L110.994 137.864C113.354 136.504 114.106 133.456 112.658 131.152L99.9618 110.968C98.5858 108.784 95.7298 108.08 93.4978 109.368L91.1938 110.696L91.1858 110.688Z" fill="white"/>
<path fill-rule="evenodd" clip-rule="evenodd" d="M90.9218 110.856L89.6098 108.584C89.0098 107.544 87.7618 107.144 86.6898 107.52C77.7778 110.72 67.5858 107.192 62.6818 98.7119C57.1698 89.1679 60.4418 76.9679 69.9858 71.4559C79.5298 65.9439 91.7298 69.2159 97.2418 78.7599C102.138 87.2479 100.098 97.8399 92.8658 103.96C92.0018 104.696 91.7218 105.976 92.3218 107.016L93.6338 109.288C94.1298 109.024 94.6578 108.856 95.1858 108.776L93.7138 106.224C93.5138 105.88 93.6018 105.448 93.9058 105.192C101.714 98.5839 103.922 87.1439 98.6338 77.9759C92.6818 67.6639 79.4978 64.1359 69.1938 70.0879C58.8818 76.0399 55.3538 89.2239 61.3058 99.5279C66.6018 108.696 77.6178 112.504 87.2418 109.048C87.6178 108.912 88.0338 109.056 88.2338 109.4L89.7378 112.008C90.0578 111.576 90.4578 111.192 90.9298 110.872L90.9218 110.856Z" fill="#808080"/>
<path fill-rule="evenodd" clip-rule="evenodd" d="M94.2898 110.744L91.9858 112.072C90.4978 112.928 89.9538 114.816 90.7538 116.336L101.89 137.424C102.738 139.032 104.746 139.608 106.322 138.704L110.194 136.472C111.762 135.56 112.266 133.536 111.298 132L98.6018 111.816C97.6898 110.36 95.7858 109.888 94.2898 110.752V110.744ZM91.1858 110.688C88.9538 111.976 88.1378 114.8 89.3378 117.088L100.474 138.176C101.746 140.584 104.762 141.456 107.122 140.096L110.994 137.864C113.354 136.504 114.106 133.456 112.658 131.152L99.9618 110.968C98.5858 108.784 95.7298 108.08 93.4978 109.368L91.1938 110.696L91.1858 110.688Z" fill="#DDDDDD"/>
</svg>
